<?xml version="1.0" encoding="UTF-8"?>
<svg id="Calque_1" data-name="Calque 1" xmlns="http://www.w3.org/2000/svg" viewBox="0 0 1039.99 692">
  <defs>
    <style>
      .cls-1 {
        fill: #fff;
      }

      .cls-2 {
        fill: #fd0001;
      }
    </style>
  </defs>
  <path class="cls-1" d="M0,0h320c118,0,206,67,206,179,0,67-31,118-79,149,60,29,101,81,101,158,0,124-96,195-219,195H0V0ZM291,278c48,0,86-28,86-78,0-46-38-70-83-70h-142v148h139ZM303,551c50,0,92-29,92-81s-43-78-96-78h-147v159h151Z"/>
  <path class="cls-1" d="M602.99,139h144c0,28,0,51-1,76h2c29-54,77-78,129-78,9,0,19,1,29,2v132h-40c-79,0-119,57-119,135v275h-144V139Z"/>
  <path class="cls-2" d="M852.99,601c0-53,40-90,93-90s94,37,94,90-40,91-94,91-93-37-93-91Z"/>
</svg>